{
  "source": "C:\\Users\\Peter\\Desktop\\stuff\\MIUN\\quantitative_research\\video_compression\\videos\\UVG\\ShakeNDry_1920x1080_120fps_420_8bit_YUV.y4m",
  "output": "C:\\Users\\Peter\\Desktop\\stuff\\MIUN\\quantitative_research\\video_compression\\compressed_videos\\UVG\\h264\\2\\ShakeNDry_1920x1080_120fps_420_8bit_YUV_h264.mp4",
  "codec": "h264",
  "ok": "[yuv4mpegpipe @ 0000025a55485e00] Stream #0: not enough frames to estimate rate; consider increasing probesize\nInput #0, yuv4mpegpipe, from 'C:\\Users\\Peter\\Desktop\\stuff\\MIUN\\quantitative_research\\video_compression\\videos\\UVG\\ShakeNDry_1920x1080_120fps_420_8bit_YUV.y4m':\n  Duration: 00:00:02.50, start: 0.000000, bitrate: 2985989 kb/s\n  Stream #0:0: Video: rawvideo (I420 / 0x30323449), yuv420p(progressive), 1920x1080, 120 fps, 120 tbr, 120 tbn\n[out#0/mp4 @ 0000025a5548a600] Codec AVOption b:a (set bitrate (in bits/s)) has not been used for any stream. The most likely reason is either wrong type (e.g. a video option with no video streams) or that it is a private option of some decoder which was not actually used for any stream.\nStream mapping:\n  Stream #0:0 -> #0:0 (rawvideo (native) -> h264 (libx264))\nPress [q] to stop, [?] for help\n[libx264 @ 0000025a5548ca80] using cpu capabilities: MMX2 SSE2Fast SSSE3 SSE4.2 AVX FMA3 BMI2 AVX2\n[libx264 @ 0000025a5548ca80] profile High, level 5.1, 4:2:0, 8-bit\n[libx264 @ 0000025a5548ca80] 264 - core 165 r3222 b35605a - H.264/MPEG-4 AVC codec - Copyleft 2003-2025 - http://www.videolan.org/x264.html - options: cabac=1 ref=5 deblock=1:0:0 analyse=0x3:0x113 me=hex subme=8 psy=1 psy_rd=1.00:0.00 mixed_ref=1 me_range=16 chroma_me=1 trellis=2 8x8dct=1 cqm=0 deadzone=21,11 fast_pskip=1 chroma_qp_offset=-2 threads=18 lookahead_threads=3 sliced_threads=0 nr=0 decimate=1 interlaced=0 bluray_compat=0 constrained_intra=0 bframes=3 b_pyramid=2 b_adapt=1 b_bias=0 direct=3 weightb=1 open_gop=0 weightp=2 keyint=250 keyint_min=25 scenecut=40 intra_refresh=0 rc_lookahead=50 rc=cbr mbtree=1 bitrate=2000 ratetol=1.0 qcomp=0.60 qpmin=0 qpmax=69 qpstep=4 vbv_maxrate=2000 vbv_bufsize=2000 nal_hrd=none filler=0 ip_ratio=1.40 aq=1:1.00\nOutput #0, mp4, to 'C:\\Users\\Peter\\Desktop\\stuff\\MIUN\\quantitative_research\\video_compression\\compressed_videos\\UVG\\h264\\2\\ShakeNDry_1920x1080_120fps_420_8bit_YUV_h264.mp4':\n  Metadata:\n    encoder         : Lavf62.3.100\n  Stream #0:0: Video: h264 (avc1 / 0x31637661), yuv420p(tv, progressive), 1920x1080, q=2-31, 2000 kb/s, 120 fps, 15360 tbn\n    Metadata:\n      encoder         : Lavc62.11.100 libx264\n    Side data:\n      cpb: bitrate max/min/avg: 2000000/0/2000000 buffer size: 2000000 vbv_delay: N/A\nframe=    0 fps=0.0 q=0.0 size=       0KiB time=N/A bitrate=N/A speed=N/A elapsed=0:00:00.51    \nframe=    0 fps=0.0 q=0.0 size=       0KiB time=N/A bitrate=N/A speed=N/A elapsed=0:00:01.03    \nframe=   28 fps= 18 q=46.0 size=       0KiB time=00:00:00.21 bitrate=   1.8kbits/s speed=0.14x elapsed=0:00:01.54    \nframe=   60 fps= 29 q=46.0 size=       0KiB time=00:00:00.46 bitrate=   0.8kbits/s speed=0.226x elapsed=0:00:02.06    \nframe=   96 fps= 37 q=45.0 size=       0KiB time=00:00:00.76 bitrate=   0.5kbits/s speed=0.293x elapsed=0:00:02.61    \nframe=  128 fps= 41 q=43.0 size=       0KiB time=00:00:01.05 bitrate=   0.4kbits/s speed=0.334x elapsed=0:00:03.14    \nframe=  164 fps= 44 q=42.0 size=       0KiB time=00:00:01.28 bitrate=   0.3kbits/s speed=0.347x elapsed=0:00:03.69    \nframe=  200 fps= 46 q=44.0 size=     256KiB time=00:00:01.61 bitrate=1297.4kbits/s speed=0.371x elapsed=0:00:04.36    \nframe=  233 fps= 47 q=43.0 size=     256KiB time=00:00:01.91 bitrate=1094.4kbits/s speed=0.385x elapsed=0:00:04.98    \nframe=  272 fps= 49 q=42.0 size=     256KiB time=00:00:02.25 bitrate= 932.2kbits/s speed=0.402x elapsed=0:00:05.59    \n[mp4 @ 0000025a5548b700] Starting second pass: moving the moov atom to the beginning of the file\n[out#0/mp4 @ 0000025a5548a600] video:460KiB audio:0KiB subtitle:0KiB other streams:0KiB global headers:0KiB muxing overhead: 0.945404%\nframe=  300 fps= 52 q=-1.0 Lsize=     465KiB time=00:00:02.48 bitrate=1532.4kbits/s speed=0.432x elapsed=0:00:05.74    \n[libx264 @ 0000025a5548ca80] frame I:2     Avg QP:41.07  size: 33751\n[libx264 @ 0000025a5548ca80] frame P:76    Avg QP:40.46  size:  3181\n[libx264 @ 0000025a5548ca80] frame B:222   Avg QP:44.91  size:   726\n[libx264 @ 0000025a5548ca80] consecutive B-frames:  1.3%  0.0%  0.0% 98.7%\n[libx264 @ 0000025a5548ca80] mb I  I16..4: 42.2% 55.5%  2.3%\n[libx264 @ 0000025a5548ca80] mb P  I16..4:  0.7%  0.6%  0.0%  P16..4: 10.0%  0.5%  5.9%  0.0%  0.0%    skip:82.3%\n[libx264 @ 0000025a5548ca80] mb B  I16..4:  0.0%  0.0%  0.0%  B16..8:  8.7%  0.1%  0.0%  direct: 0.0%  skip:91.1%  L0:21.4% L1:78.4% BI: 0.2%\n[libx264 @ 0000025a5548ca80] 8x8 transform intra:53.2% inter:94.4%\n[libx264 @ 0000025a5548ca80] direct mvs  spatial:95.5% temporal:4.5%\n[libx264 @ 0000025a5548ca80] coded y,uvDC,uvAC intra: 31.0% 35.5% 4.2% inter: 0.6% 0.6% 0.0%\n[libx264 @ 0000025a5548ca80] i16 v,h,dc,p: 33% 28%  6% 32%\n[libx264 @ 0000025a5548ca80] i8 v,h,dc,ddl,ddr,vr,hd,vl,hu:  4%  5%  9%  9% 17% 11% 22%  9% 14%\n[libx264 @ 0000025a5548ca80] i4 v,h,dc,ddl,ddr,vr,hd,vl,hu:  2%  5%  1%  9% 16% 13% 26%  7% 22%\n[libx264 @ 0000025a5548ca80] i8c dc,h,v,p: 62% 22%  8%  7%\n[libx264 @ 0000025a5548ca80] Weighted P-Frames: Y:0.0% UV:0.0%\n[libx264 @ 0000025a5548ca80] ref P L0: 71.9%  9.7% 10.0%  3.9%  4.5%\n[libx264 @ 0000025a5548ca80] ref B L0: 83.6% 11.0%  3.9%  1.5%\n[libx264 @ 0000025a5548ca80] ref B L1: 95.0%  5.0%\n[libx264 @ 0000025a5548ca80] kb/s:1505.49\n",
  "seconds": 5.963632106781006,
  "probe_out": {}
}